# xmcd
#
# Track frame offsets: 
#        150
#        19005
#        37260
#        55860
#        73820
#        92025
#        109657
#        126182
#
# Disc length: 1930 seconds
#
# Revision: 0
# Processed by: cddbd v1.4PL0 Copyright (c) Steve Scherf et al.
# Submitted via: ExactAudioCopy v0.95a3
#
DISCID=6d078808
DTITLE=Gregory Abbott - Shake You Down
DYEAR=1986
DGENRE=Soul
TTITLE0=I Got The Feelin'
TTITLE1=Say You Will
TTITLE2=Shake You Down
TTITLE3=You're My Angel
TTITLE4=Magic
TTITLE5=Wait Until Tomorrow
TTITLE6=Rhyme And Reason
TTITLE7=I'll Find A Way
EXTD=
EXTT0=
EXTT1=
EXTT2=
EXTT3=
EXTT4=
EXTT5=
EXTT6=
EXTT7=
PLAYORDER=
